<?xml version="1.0" encoding="UTF-8" standalone="no"?>
<!-- Created with Inkscape (http://www.inkscape.org/) -->

<svg
   width="123.61015mm"
   height="121.65748mm"
   viewBox="0 0 123.61015 121.65748"
   version="1.1"
   id="svg1"
   xml:space="preserve"
   inkscape:version="1.4.2 (ebf0e940d0, 2025-05-08)"
   sodipodi:docname="icon.svg"
   inkscape:export-filename="icon.png"
   inkscape:export-xdpi="61.927616"
   inkscape:export-ydpi="61.927616"
   xmlns:inkscape="http://www.inkscape.org/namespaces/inkscape"
   xmlns:sodipodi="http://sodipodi.sourceforge.net/DTD/sodipodi-0.dtd"
   xmlns="http://www.w3.org/2000/svg"
   xmlns:svg="http://www.w3.org/2000/svg"><sodipodi:namedview
     id="namedview1"
     pagecolor="#ffffff"
     bordercolor="#000000"
     borderopacity="0.25"
     inkscape:showpageshadow="2"
     inkscape:pageopacity="0.0"
     inkscape:pagecheckerboard="0"
     inkscape:deskcolor="#d1d1d1"
     inkscape:document-units="mm"
     inkscape:zoom="0.5683642"
     inkscape:cx="189.13929"
     inkscape:cy="452.17486"
     inkscape:window-width="1536"
     inkscape:window-height="891"
     inkscape:window-x="0"
     inkscape:window-y="0"
     inkscape:window-maximized="1"
     inkscape:current-layer="layer1" /><defs
     id="defs1"><rect
       x="179.46239"
       y="659.78821"
       width="394.11349"
       height="163.62749"
       id="rect1" /></defs><g
     inkscape:label="Layer 1"
     inkscape:groupmode="layer"
     id="layer1"
     transform="translate(-54.466082,-28.855386)"><path
       id="path85"
       style="fill:#e6e6e6;stroke-width:0.507185"
       d="m 116.02148,28.859375 c -1.62448,0.189746 -2.4897,1.776067 -3.83827,2.508349 -5.90267,4.138381 -13.70976,5.265282 -20.707515,3.762305 -3.724494,-0.822626 -7.157003,-2.625675 -10.205533,-4.884717 -0.872482,-0.63577 -1.915125,-1.263932 -3.036035,-0.924109 -1.864645,0.483114 -3.036481,2.161912 -4.499255,3.287754 -6.22732,5.505378 -12.527305,10.939575 -18.639169,16.574637 -1.294822,1.561503 -0.454357,4.075427 1.265625,4.939453 5.347107,4.341436 8.920542,10.767746 9.697283,17.571592 0.424811,4.074811 0.07876,8.153447 -1.265471,12.045748 -0.807626,2.497935 -2.226241,4.716717 -3.602096,6.928251 -1.820253,2.944525 -3.369469,6.094819 -4.12459,9.491872 -2.10415,8.45393 -0.515192,17.6819 4.076623,25.06021 4.379396,7.24716 11.629466,12.8084 19.923471,14.71681 6.429218,1.79944 13.141413,1.98484 19.742332,2.66623 5.2596,0.76948 10.15928,3.50169 13.72432,7.41968 1.57769,1.09482 3.71965,0.20344 4.77711,-1.20218 4.21738,-4.19102 10.1358,-6.44379 16.04189,-6.57505 7.8909,-0.54536 15.98509,-1.4225 23.19906,-4.90044 11.89886,-6.05136 19.33695,-19.84314 17.75364,-33.11278 -0.55815,-5.362768 -2.64249,-10.485659 -5.63637,-14.942986 -1.74244,-2.853786 -3.22282,-5.944136 -3.74107,-9.314706 -1.06031,-5.468194 -0.46201,-11.387477 1.97458,-16.490353 1.92035,-4.009229 4.86573,-7.639148 8.47491,-10.311117 1.40376,-1.650253 0.53973,-4.293337 -1.22461,-5.304687 -6.943,-6.039878 -13.78563,-12.197285 -20.79492,-18.154297 -1.61279,-0.974003 -3.62636,-0.131988 -4.85366,1.081189 -3.56397,2.706612 -7.89953,4.369059 -12.3987,4.841097 -5.36671,0.616114 -11.01775,-0.433505 -15.81225,-3.039696 -1.84598,-0.924483 -3.40353,-2.295103 -5.10531,-3.435325 -0.35633,-0.187027 -0.7595,-0.333001 -1.16602,-0.302734 z" /><path
       style="fill:#28170b;stroke-width:0.507185"
       d="m 115.44414,146.46196 c -2.10893,-2.15562 -5.36243,-4.26323 -8.38284,-5.4304 -3.53452,-1.36583 -5.72072,-1.7655 -11.339275,-2.07296 -6.086264,-0.33305 -12.473411,-1.46085 -16.807713,-2.96778 -8.958491,-3.11466 -15.911678,-10.86376 -18.6308,-20.76342 -2.071581,-7.54213 -0.785271,-16.082677 3.395236,-22.542897 3.559714,-5.50091 4.781654,-8.60703 5.551017,-14.11046 0.212722,-1.52165 0.216554,-5.64374 0.0068,-7.3135 -0.511558,-4.07225 -1.997421,-8.38428 -4.046066,-11.74185 -1.779614,-2.91665 -4.408872,-5.98028 -6.52028,-7.59749 -0.545487,-0.41781 -0.991673,-0.79657 -0.991524,-0.8417 2.86e-4,-0.0865 1.052426,-1.03117 5.771162,-5.18136 1.594419,-1.40231 3.611369,-3.18372 4.482112,-3.95868 0.870742,-0.77496 1.866058,-1.65057 2.211811,-1.94579 1.101784,-0.94077 4.985591,-4.36365 6.80823,-6.00024 0.968798,-0.8699 1.823595,-1.58165 1.899548,-1.58165 0.07595,0 0.394217,0.21399 0.707254,0.47552 0.992431,0.82916 3.093722,2.16347 4.689747,2.97798 2.490695,1.27109 5.258364,2.18316 8.319941,2.7418 2.363103,0.43118 6.831924,0.43258 9.60309,0.003 5.14805,-0.79805 9.84739,-2.83143 13.29057,-5.75077 l 0.68478,-0.5806 1.12681,0.84959 c 5.02309,3.78728 11.25661,5.85893 17.62933,5.85893 6.81822,0 12.98861,-2.04564 17.78751,-5.89701 0.47112,-0.37811 0.92961,-0.67034 1.01885,-0.6494 0.0892,0.0209 1.14868,0.91932 2.3543,1.9964 2.03396,1.81711 9.62357,8.49676 12.85333,11.31228 0.7711,0.6722 2.25946,1.98288 3.30745,2.9126 1.048,0.92973 2.10792,1.85219 2.35539,2.0499 0.40692,0.3251 0.42718,0.37279 0.21191,0.49867 -0.55847,0.32657 -1.99785,1.59757 -3.16382,2.79372 -3.58138,3.67407 -6.38988,8.75301 -7.61281,13.76715 -1.04102,4.26828 -1.0155,9.68274 0.0669,14.19298 0.79645,3.31873 1.87376,5.7824 4.03434,9.22609 2.55439,4.07137 3.50539,6.1838 4.37252,9.712527 0.85842,3.49332 1.07919,6.99001 0.65777,10.41791 -0.83059,6.75605 -4.208,13.48615 -9.17559,18.28398 -3.57375,3.45163 -7.37633,5.61994 -12.2777,7.00102 -4.55642,1.28388 -9.92066,2.08858 -16.58588,2.48809 -2.79578,0.16758 -4.10295,0.326 -5.63609,0.68308 -3.13295,0.72969 -6.75546,2.34206 -9.2531,4.11854 -0.69775,0.49628 -1.85248,1.46091 -2.56607,2.14362 -0.71358,0.6827 -1.32212,1.24127 -1.35231,1.24127 -0.0302,0 -0.41532,-0.3684 -0.85585,-0.81868 z"
       id="path2" /><path
       style="fill:#e6e6e6;stroke-width:0.507185"
       d="m 162.05858,64.852863 c 0.73964,-2.31635 1.58606,-4.24956 2.74675,-6.27351 1.5049,-2.62417 2.71757,-4.23457 4.76162,-6.32332 1.25651,-1.28399 1.26181,-1.29224 0.96437,-1.50058 -0.1645,-0.11522 -0.91045,-0.74783 -1.65767,-1.40581 -0.74722,-0.65798 -2.92864,-2.57964 -4.84759,-4.27035 -1.91896,-1.69071 -4.21365,-3.70196 -5.09932,-4.46944 -0.88567,-0.76748 -2.41556,-2.12589 -3.39976,-3.01869 -0.98419,-0.89279 -1.83293,-1.63947 -1.88608,-1.65927 -0.0531,-0.0198 -0.69718,0.36561 -1.43118,0.85648 -3.10406,2.07588 -7.38989,3.72918 -11.39898,4.39729 -3.30596,0.55093 -7.2758,0.66283 -9.94563,0.28035 -4.86388,-0.69681 -9.72966,-2.45066 -13.31343,-4.79878 l -1.31482,-0.86148 -1.19942,0.79522 c -1.67486,1.11045 -4.92276,2.68276 -6.8404,3.31144 -3.40662,1.11683 -6.3172,1.62449 -9.874222,1.72223 -5.223262,0.14354 -9.408445,-0.6916 -14.198819,-2.83333 -1.640911,-0.73364 -3.873881,-1.99804 -4.584315,-2.59583 -0.19915,-0.16757 -0.436902,-0.30468 -0.528335,-0.30468 -0.09143,0 -0.777164,0.56246 -1.523844,1.24991 -0.74668,0.68745 -2.776687,2.48977 -4.511126,4.00516 -1.734439,1.51538 -3.697006,3.23481 -4.361259,3.82095 -3.552255,3.13451 -5.830563,5.12815 -6.299253,5.51217 l -0.52587,0.43087 1.132423,1.17944 c 3.545615,3.69283 6.175482,8.12621 7.66486,12.9213 0.149009,0.47973 0.298179,0.91754 0.331488,0.97289 0.03331,0.0554 20.464214,0.10065 45.402012,0.10065 h 45.34145 z"
       id="path12" /><path
       style="fill:#e6e6e6;stroke-width:0.507185"
       d="m 117.84012,142.33955 c 3.41611,-2.6483 7.30627,-4.42498 11.52302,-5.26268 1.94214,-0.38582 3.32246,-0.52293 8.09278,-0.80383 5.1145,-0.30117 11.90873,-1.58074 15.63344,-2.94427 5.31686,-1.94639 10.1588,-5.96338 13.32227,-11.05247 1.63073,-2.62337 3.1488,-6.36959 3.70688,-9.14767 1.0107,-5.03115 0.54114,-10.37193 -1.3221,-15.037437 -0.50708,-1.26972 -1.76316,-3.55834 -2.82844,-5.15355 -1.77272,-2.65454 -3.05734,-5.35746 -4.00965,-8.4366 -0.61157,-1.97742 -0.72259,-2.45833 -1.08938,-4.71927 -0.5101,-3.1443 -0.47925,-6.93059 0.0852,-10.46066 l 0.0868,-0.54313 h -44.70328 c -35.675435,0 -44.702428,0.0339 -44.699035,0.16774 0.0023,0.0923 0.09252,0.8018 0.200413,1.57676 0.298818,2.1464 0.389791,5.08186 0.214178,6.91092 -0.588246,6.12678 -2.13118,10.57518 -5.44838,15.70813 -3.94237,6.10032 -5.240614,11.695057 -4.279852,18.443887 1.406734,9.88155 8.400798,18.65315 17.428042,21.85739 4.054496,1.43915 10.431913,2.52517 17.042459,2.9022 1.992761,0.11365 4.166685,0.30005 4.830935,0.41422 3.80155,0.6534 7.02804,1.77742 10.00009,3.48375 1.46753,0.84254 4.07104,2.65176 4.41859,3.07053 0.0957,0.11536 0.19522,0.20975 0.22107,0.20975 0.0259,0 0.73409,-0.53267 1.57387,-1.18371 z"
       id="path3" /><path
       style="fill:#000000;stroke-width:0.507185"
       d="m 116.79026,43.124353 c 0.14762,-0.0819 0.36193,-0.21593 0.47625,-0.29786 0.11433,-0.0819 0.0657,-0.0131 -0.10813,0.15298 -0.17379,0.16607 -0.3881,0.3001 -0.47625,0.29785 -0.0881,-0.002 -0.0395,-0.0711 0.10813,-0.15297 z"
       id="path21" /><path
       id="path4"
       style="fill:#1a1a1a;stroke-width:0.507185"
       d="m 116.23167,132.9893 c -0.51271,0 -0.66294,0.0662 -0.99529,0.43821 -0.55641,0.62252 -0.5561,1.49805 5.1e-4,2.05466 1.0345,1.03451 2.88641,-0.0239 2.435,-1.39165 -0.23934,-0.7252 -0.73124,-1.10122 -1.44022,-1.10122 z m 0.55397,0.55035 c 0.10835,0.001 0.19608,0.0481 0.32814,0.14056 0.66734,0.46742 0.59607,1.48737 -0.13022,1.86294 -0.84837,0.43871 -1.60249,0.10723 -1.60249,-0.70435 0,-0.51242 0.32692,-0.91363 0.95291,-1.16944 0.21461,-0.0877 0.3433,-0.13121 0.45166,-0.12971 z" /><path
       style="fill:#000000;stroke-width:0.507185"
       d="m 115.27199,42.946323 c -0.48607,-0.409 -0.62215,-0.8868 -0.42376,-1.48793 0.3415,-1.03473 1.66155,-1.36326 2.42203,-0.60277 0.21574,0.21574 0.38817,0.50257 0.38317,0.63741 -0.008,0.20492 -0.0332,0.19512 -0.156,-0.0597 -0.27853,-0.57795 -1.12257,-0.56172 -1.7653,0.0339 -0.30622,0.28379 -0.3595,0.43227 -0.32502,0.9059 0.0326,0.44745 0.11171,0.60195 0.37671,0.73537 0.22812,0.11484 0.26362,0.16953 0.11094,0.17087 -0.1235,10e-4 -0.40374,-0.14881 -0.62277,-0.3331 z"
       id="path20" /><path
       id="path18"
       style="fill:#000000;stroke-width:0.507185"
       d="m 139.26747,46.606458 v 7.462593 7.462594 h 3.22616 c 3.66366,0 4.6774,-0.141232 6.2637,-0.873332 1.6651,-0.76847 2.80182,-2.204382 3.31607,-4.188892 0.26943,-1.03916 0.27387,-3.443359 0.009,-4.567679 -0.45813,-1.94308 -1.67944,-3.527109 -3.32486,-4.312399 -1.4946,-0.71331 -2.34587,-0.841106 -6.10144,-0.915706 z m 3.08663,2.679423 1.84485,0.05994 c 1.66838,0.05441 1.9263,0.09666 2.69234,0.441834 1.58199,0.71284 2.30632,2.074426 2.30632,4.335136 0,1.74861 -0.29237,2.609631 -1.20096,3.537251 -0.58006,0.5922 -0.90779,0.809509 -1.4826,0.980819 v -5.17e-4 c -0.79597,0.23722 -3.89431,0.441931 -4.0597,0.268201 -0.0553,-0.05815 -0.10025,-2.247033 -0.10025,-4.864303 z" /><path
       style="fill:#000000;stroke-width:0.507185"
       d="m 125.57988,54.082303 v -7.44928 l 5.13286,0.0351 5.13287,0.0352 0.0401,1.00486 c 0.0221,0.55268 0.006,1.14046 -0.0356,1.30619 l -0.0756,0.30133 -3.58764,0.0357 -3.58764,0.0357 v 1.67741 1.6774 l 3.25416,0.0359 3.25418,0.0359 v 1.27244 1.27245 h -3.29162 -3.29161 l 0.0374,1.77805 0.0374,1.77805 3.79094,0.0356 3.79093,0.0356 v 1.27274 1.27274 h -5.3006 -5.30061 z"
       id="path17" /><path
       id="path15"
       style="fill:#000000;stroke-width:0.507185"
       d="m 110.28216,46.63643 v 7.447607 l -5.2e-4,7.447608 h 1.45831 1.45883 l 0.0832,-0.503329 c 0.0457,-0.27678 0.0834,-1.39562 0.0842,-2.48667 l 0.002,-1.983858 1.49294,0.03772 1.49241,0.03824 1.09089,1.90066 c 0.59976,1.04541 1.22803,2.147396 1.3963,2.448946 l 0.30592,0.548287 h 1.73685 1.73684 l -0.38034,-0.637687 c -0.20927,-0.35057 -0.95972,-1.584242 -1.66811,-2.741952 l -1.28829,-2.105298 0.4594,-0.151412 c 0.59939,-0.19782 1.755,-1.243015 2.08101,-1.882055 0.4038,-0.7915 0.57295,-2.164053 0.40359,-3.275253 -0.20462,-1.34253 -0.67398,-2.236469 -1.48931,-2.834969 -1.42857,-1.04868 -2.67683,-1.266589 -7.24556,-1.266589 z m 3.08611,2.683557 h 2.01745 c 2.27308,0 2.65028,0.09593 3.30109,0.837158 0.98716,1.1243 0.58483,3.123119 -0.74466,3.697449 -0.33714,0.14564 -1.09222,0.225601 -2.52749,0.268201 l -2.04639,0.06098 V 51.75188 Z" /><path
       style="fill:#000000;stroke-width:0.507185"
       d="m 95.254901,60.961273 c 0.0014,-0.31368 -0.01369,-3.65004 -0.03355,-7.41414 l -0.0361,-6.84382 1.509667,-0.0379 1.509666,-0.0379 v 3.37039 c 0,1.92244 0.0515,3.35118 0.119873,3.32567 0.06593,-0.0246 0.919302,-0.98073 1.896383,-2.12472 0.97708,-1.14399 2.25721,-2.63856 2.84474,-3.32127 l 1.06823,-1.24128 h 1.74406 1.74405 l -0.36281,0.43613 c -0.47912,0.57593 -2.6994,3.09521 -3.92166,4.44978 -0.53509,0.59301 -0.9729,1.11672 -0.9729,1.16378 0,0.0471 0.52151,0.89416 1.1589,1.88242 0.6374,0.98827 1.62675,2.52149 2.19856,3.40717 1.1917,1.84581 2.14444,3.39696 2.14444,3.49137 0,0.0356 -0.80587,0.0647 -1.79081,0.0647 h -1.79082 l -1.92863,-3.22062 c -1.06074,-1.77134 -1.97141,-3.22063 -2.02371,-3.22063 -0.0523,0 -0.552467,0.51408 -1.11149,1.1424 l -1.016406,1.1424 v 2.07822 2.07823 h -1.476113 -1.476119 z"
       id="path14" /><path
       style="fill:#000000;stroke-width:0.507185"
       d="m 84.584039,61.612933 c -1.714546,-0.33095 -4.36126,-1.56045 -4.36126,-2.02598 0,-0.0947 0.276486,-0.69189 0.614413,-1.32712 l 0.614413,-1.15498 0.559773,0.38393 c 1.968289,1.34998 4.306338,1.92115 6.058305,1.48 0.789293,-0.19875 1.174171,-0.63058 1.192727,-1.33825 0.01264,-0.48195 -0.04925,-0.61316 -0.44502,-0.94357 -0.471501,-0.39363 -1.619293,-0.81756 -3.629484,-1.34054 -2.1546,-0.56055 -3.3754,-1.2805 -3.93021,-2.31781 -0.254719,-0.47624 -0.296857,-0.76456 -0.296857,-2.03114 0,-1.25895 0.04275,-1.55509 0.290563,-2.01289 0.609713,-1.12635 1.914282,-2.0291 3.37279,-2.33394 1.000295,-0.20906 3.02506,-0.18129 4.028432,0.0553 0.723214,0.1705 2.637406,0.99255 3.224424,1.38473 0.144423,0.0965 0.06625,0.36733 -0.388492,1.34608 -0.313111,0.67391 -0.58663,1.22529 -0.607818,1.22529 -0.02119,0 -0.571008,-0.2665 -1.221819,-0.59221 -1.489588,-0.74551 -2.000648,-0.88223 -3.301138,-0.88316 -1.656243,-10e-4 -2.377609,0.4555 -2.377609,1.50523 0,0.91567 0.558776,1.25338 3.188769,1.92721 4.156368,1.0649 5.417801,2.28293 5.228255,5.04834 -0.127104,1.85442 -1.118707,3.07507 -3.017554,3.71458 -1.145516,0.38579 -3.42476,0.49555 -4.795603,0.23095 z"
       id="path13" /><text
       xml:space="preserve"
       transform="scale(0.26458333)"
       id="text1"
       style="text-align:start;writing-mode:lr-tb;direction:ltr;white-space:pre;shape-inside:url(#rect1);display:inline;fill:#d40000" /><path
       id="text2"
       style="font-size:22.5778px;text-align:start;writing-mode:lr-tb;direction:ltr;text-anchor:start;fill:#d40000;stroke-width:0.242787"
       d="m 82.433795,95.717334 c -0.336071,0.16506 -0.83937,0.0725 -0.892532,0.55917 -1.26685,0.095 -2.607181,0.0737 -3.706663,0.80911 -0.683703,0.58708 -1.406201,1.17574 -2.001597,1.85773 -0.281321,0.62122 -0.45347,1.257036 -0.454636,1.948916 -0.07719,0.65671 -0.109594,1.39021 0.140996,1.98503 0.349416,0.27212 0.261388,0.90095 0.822634,0.92479 0.413131,0.49632 0.763302,1.12848 1.484118,1.15892 1.178853,0.42155 2.149272,1.34706 3.390934,1.65351 1.204399,0.43465 2.433843,0.81114 3.544856,1.46205 -0.662631,0.41775 -1.254362,1.00923 -2.089985,0.99915 -1.104976,0.19558 -2.204201,0.49018 -3.332456,0.30227 -0.740556,0.0916 -1.009929,-0.13622 -0.600568,-0.82494 -0.915429,0.45216 -2.28683,0.55637 -2.590889,1.7427 -0.190528,0.52734 0.809718,0.35406 1.143732,0.54603 0.527255,0.0519 1.003551,-0.0312 1.523951,0.0195 1.612491,-0.17335 3.194727,-0.60003 4.782883,-0.92433 1.737479,-0.37998 3.367783,-1.11531 5.045207,-1.70172 0.678821,-0.13935 0.79513,-0.33466 0.113015,-0.63892 -0.434834,-0.26398 -0.752827,-0.63071 -1.154205,-0.92838 -1.293628,-0.66133 -2.672751,-1.12187 -4.024118,-1.64677 -1.133708,-0.63281 -2.344863,-1.16095 -3.430139,-1.8592 -0.526157,-0.47037 -1.006502,-0.97234 -1.194404,-1.67291 -0.450324,-0.73622 -0.01445,-1.607086 -0.02207,-2.410866 -0.07684,-0.66638 0.77432,-0.13014 1.155898,-0.0595 1.044567,0.52302 1.417841,1.742626 1.997143,2.674016 0.263551,0.78404 0.860513,0.27444 1.382941,0.054 0.654017,-0.34119 1.433978,-0.55662 2.010952,-0.97471 0.269111,-0.50653 -0.465409,-0.940826 -0.623791,-1.416596 -0.7223,-1.09176 -1.420218,-2.19507 -1.98303,-3.37873 -0.08783,-0.12032 -0.262705,-0.39515 -0.438182,-0.25932 z m 64.532905,0.33873 c -0.27541,0.17593 -0.88389,0.32458 -0.6121,0.74806 0.19633,0.48047 -0.11755,1.02372 0.33969,1.41337 0.4648,1.09101 1.00786,2.159376 1.1107,3.359706 0.22956,1.33616 0.5361,2.68355 0.73439,4.00995 0.0189,1.26275 -0.12302,2.54483 -0.25717,3.81029 0.30343,0.51128 -0.0647,1.1058 0.15233,1.62018 0.60434,0.32336 1.44401,0.26332 2.07546,-0.01 0.42023,-0.20204 1.05571,-0.34233 1.19895,-0.80929 -0.20979,-0.43037 -0.44692,-0.91673 0.0561,-1.23341 1.30816,-1.51393 3.00497,-2.66202 4.29009,-4.19346 0.60601,-0.4096 1.04911,-1.01861 1.44992,-1.62019 -0.92927,-1.18911 -2.49699,-1.46121 -3.77797,-2.12123 -1.20647,-0.4982 -2.39549,-1.084726 -3.35184,-1.989776 -0.68146,-0.73421 -1.53116,-1.41088 -1.7292,-2.45214 -0.33848,-0.40199 -0.81056,-1.05422 -1.38963,-0.71685 -0.0966,0.0615 -0.19313,0.12303 -0.28969,0.18456 z m -37.77129,0.57351 c -0.80318,0.47833 -1.60832,0.96951 -2.32144,1.56265 -1.02795,0.43259 -2.00613,0.96746 -2.83839,1.71176 -0.005,1.657716 1.54837,2.610866 2.54601,3.715306 0.35298,0.30343 0.51063,0.75493 0.72839,1.1524 -0.58632,0.40018 -1.26191,0.52867 -1.9437,0.65069 -1.12837,0.50271 -2.36811,0.79493 -3.34876,1.57705 -0.64107,-0.63289 -1.62301,-0.4016 -2.435252,-0.5934 -1.572448,-0.33983 -2.945148,-1.34531 -4.557273,-1.57806 -0.855464,-0.45846 -1.633323,-1.12316 -2.176538,-1.9453 2.371468,-0.54676 4.550346,-1.66038 6.8148,-2.52212 0.563963,-0.26037 1.275703,-0.34312 1.501103,-1.010396 0.61708,-0.66883 -0.44512,-0.54563 -0.87296,-0.54634 -0.863999,-0.006 -1.967019,-0.2161 -2.512564,0.64469 -0.501729,0.782576 -1.519235,0.872066 -2.280064,1.306526 -0.850709,0.36858 -1.757578,0.89564 -2.707006,0.70816 -0.629305,-0.0124 -0.633838,-0.45105 -0.508776,-0.95102 0.120695,-0.990086 0.762178,-1.804736 1.144249,-2.705396 0.309725,-0.47519 0.911291,-0.78756 0.837083,-1.44424 -0.112813,-0.45289 -0.522164,-0.29681 -0.829449,-0.12832 -0.645814,0.2228 -1.521593,0.0315 -1.880411,0.75202 -0.404378,0.64458 -0.87577,1.28722 -1.246912,1.92688 0.04579,0.85216 -0.195389,1.645766 -0.502536,2.429116 -0.145746,0.63842 -0.523412,1.24337 -1.175475,1.43828 -0.317158,0.45096 0.238775,0.98873 0.642932,1.24473 0.659606,0.46875 0.94941,1.22941 1.001283,2.00982 0.349807,1.40407 0.699513,2.81617 1.410946,4.08875 0.212311,0.51959 0.559502,1.20268 1.233965,0.99377 0.713112,0.18524 0.943206,-0.66046 1.2995,-1.09409 0.314378,-0.41945 0.09549,-1.1108 -0.163236,-1.52147 -0.620037,-0.58388 -0.697576,-1.45028 -0.810389,-2.24278 1.365441,0.34347 2.740086,0.65068 4.061197,1.13448 0.921202,0.1064 1.842468,0.21227 2.763623,0.31901 0.17102,0.50394 0.42481,0.98631 0.99621,1.09961 1.80212,0.88453 3.69207,1.60797 5.61854,2.1518 1.28495,0.13344 2.59161,0.40001 3.86457,0.0472 1.09419,-0.0452 2.19789,-0.26141 3.22456,-0.6208 0.66931,-0.41046 1.47231,-0.48439 2.11615,-0.93926 0.42359,-0.36329 0.81878,-0.79037 1.36389,-1.00007 0.24189,-0.51357 -0.0171,-0.94552 -0.47035,-1.21578 -0.92228,-0.61978 -1.7572,-1.39843 -2.83273,-1.73782 -1.0748,-0.73773 -2.14908,-1.47618 -3.22423,-2.2134 0.93703,-1.36238 1.4339,-2.95502 2.13097,-4.442946 0.0344,-0.85089 0.24898,-1.84194 -0.26167,-2.58798 -0.84772,-0.4101 -1.86053,-0.39991 -2.67985,0.0749 -0.24001,0.1005 -0.48001,0.201 -0.72001,0.30151 z m 16.71436,-0.30647 c -0.68309,0.58048 -1.43093,1.06159 -2.2367,1.4535 -0.20597,0.81069 -0.54371,1.6116 -0.3073,2.455116 -0.0182,0.84981 -0.64353,1.63433 -0.44459,2.51901 0.10294,1.54438 -0.13449,3.19959 0.69033,4.59481 0.36838,0.87979 1.02334,1.60018 1.38413,2.49225 0.25295,0.45877 0.52954,0.90982 0.86395,1.31424 1.05527,-0.1727 2.08215,-0.49466 3.01632,-1.01799 -0.32681,-0.79673 -0.63956,-1.61091 -1.1974,-2.27576 -0.11201,-0.3535 -0.91288,-0.9965 -0.36433,-1.1439 1.59038,-0.67323 3.24263,-1.22069 4.79313,-1.97495 0.65109,-0.46266 1.28826,-0.93759 1.99654,-1.31551 0.27276,-0.47872 0.74388,-0.91906 0.89579,-1.42117 -0.033,-0.89754 -0.90726,-1.34939 -1.40515,-2.00064 -1.16619,-1.413136 -2.98319,-1.924386 -4.57162,-2.702236 -0.0565,-0.46736 -0.13697,-1.13927 -0.76229,-1.08354 -0.62744,-0.19944 -1.25351,-0.2397 -1.87722,-0.003 -0.15787,0.0366 -0.31573,0.0732 -0.47359,0.10986 z m 15.04938,-0.23299 c -0.3912,0.15012 -0.91032,0.0287 -1.24254,0.25454 -0.68988,0.81461 -0.27928,2.0142 -0.7969,2.9171 -0.69178,1.770516 -1.22343,3.611116 -2.02911,5.332586 -0.85963,1.55092 -1.9053,3.00878 -2.64157,4.62208 0.0967,0.53908 0.58646,0.95959 1.13051,0.62711 0.69485,-0.0514 1.30973,-0.42707 1.67971,-0.99989 0.46936,-0.40355 1.16678,-0.33199 1.74151,-0.32029 1.29762,0.22368 2.59892,0.28394 3.9076,0.44036 0.60329,0.47877 0.83061,1.21114 1.17391,1.85855 0.34791,0.62523 1.09044,0.23441 1.61903,0.12934 0.2714,-0.0894 0.8641,-0.32551 0.77355,-0.64003 -0.31012,-0.35916 -0.33591,-0.95048 -0.25231,-1.39727 0.32832,-0.46746 0.24318,-0.63709 -0.20171,-1.04609 -0.46786,-0.44956 -0.77315,-0.9849 -0.86957,-1.63063 -0.62458,-2.29533 -1.37404,-4.54651 -1.88224,-6.867316 -0.449,-0.90242 -0.59973,-1.941 -0.99355,-2.84315 -0.31135,-0.23598 -0.69651,-0.6423 -1.11632,-0.437 z m -30.38731,0.95526 c 0.72745,-0.2421 0.59977,0.41764 0.56179,0.91365 -0.0685,1.13049 -0.41116,2.234286 -0.98117,3.210266 -0.36205,0.56165 -0.87833,0.99618 -1.23306,1.56462 -0.88396,-0.53657 -1.87591,-1.15303 -2.08914,-2.25078 -0.0673,-0.628516 0.43326,-1.213576 0.77365,-1.726176 0.89434,-0.62745 1.90139,-1.12771 2.83531,-1.71158 h 0.0918 z m 16.71437,2.49837 c 1.02046,0.2672 2.0381,0.541426 2.92685,1.132546 0.80489,0.26763 1.11632,1.13952 1.27056,1.89811 -1.02632,0.33229 -1.52766,1.43687 -2.5647,1.75922 -0.83501,0.47816 -1.76129,0.68489 -2.69551,0.86999 -0.20502,-0.65516 -0.557,-1.29499 -0.32827,-1.99466 0.0607,-1.31936 0.43829,-2.58612 0.97168,-3.787076 0.1398,0.0406 0.27959,0.0812 0.41939,0.12187 z m 13.88262,2.650706 c 0.89792,1.0995 0.80142,2.60092 1.35135,3.8533 0.0314,0.39401 0.45802,1.15988 0.0864,1.2962 -1.39874,0.21213 -2.81595,0.0897 -4.22468,0.12146 -0.006,-0.58129 -0.0876,-1.18333 0.33865,-1.6496 0.65868,-1.067 1.07438,-2.24665 1.53867,-3.40219 0.23251,-0.51941 0.44277,-1.29836 0.79307,-0.38874 0.0388,0.0565 0.0777,0.11305 0.11653,0.16957 z m 9.7838,-0.13441 c 1.22683,0.13801 2.38065,0.72107 3.36438,1.44827 0.55653,0.33852 0.39334,0.72926 -0.0437,1.09871 -0.77715,0.78682 -1.55289,1.58769 -2.34575,2.36373 -0.29646,0.16136 -1.01059,0.63345 -1.10713,0.28568 -0.0819,-0.82905 -0.28247,-1.66588 -0.20425,-2.48258 -0.0964,-0.93866 -0.1932,-1.87727 -0.28909,-2.81597 0.2085,0.034 0.417,0.0681 0.62549,0.10216 z m -42.72861,2.96614 c 0.63954,0.40903 1.32156,0.68066 2.067,0.81002 0.90225,0.32065 1.92779,0.32785 2.66469,1.0074 0.60808,0.40684 1.21705,0.81233 1.82429,1.22042 -0.33412,0.72421 -0.8816,1.4031 -1.71884,1.52196 -0.98359,0.37551 -2.05339,0.46132 -3.08254,0.61616 -1.64502,-0.24074 -3.41242,-0.32619 -4.80219,-1.34541 -0.70876,-0.33213 -1.06234,-1.07067 -1.39715,-1.73363 1.24433,-0.68516 2.5042,-1.34254 3.77627,-1.96566 0.23887,-0.12388 0.4098,-0.40729 0.66847,-0.13126 z" /></g></svg>
