<?xml version="1.0" encoding="UTF-8" standalone="no"?>
<!-- Created with Inkscape (http://www.inkscape.org/) -->

<svg
   width="210mm"
   height="297mm"
   viewBox="0 0 210 297"
   version="1.1"
   id="svg1"
   xml:space="preserve"
   inkscape:version="1.4.2 (ebf0e940d0, 2025-05-08)"
   sodipodi:docname="icon.svg"
   inkscape:export-filename="icon.png"
   inkscape:export-xdpi="61.927616"
   inkscape:export-ydpi="61.927616"
   xmlns:inkscape="http://www.inkscape.org/namespaces/inkscape"
   xmlns:sodipodi="http://sodipodi.sourceforge.net/DTD/sodipodi-0.dtd"
   xmlns="http://www.w3.org/2000/svg"
   xmlns:svg="http://www.w3.org/2000/svg"><sodipodi:namedview
     id="namedview1"
     pagecolor="#ffffff"
     bordercolor="#000000"
     borderopacity="0.25"
     inkscape:showpageshadow="2"
     inkscape:pageopacity="0.0"
     inkscape:pagecheckerboard="0"
     inkscape:deskcolor="#d1d1d1"
     inkscape:document-units="mm"
     inkscape:zoom="0.5683642"
     inkscape:cx="396.75265"
     inkscape:cy="561.25984"
     inkscape:window-width="1536"
     inkscape:window-height="891"
     inkscape:window-x="0"
     inkscape:window-y="0"
     inkscape:window-maximized="1"
     inkscape:current-layer="layer1" /><defs
     id="defs1"><rect
       x="223.44827"
       y="714.33071"
       width="295.58512"
       height="124.9199"
       id="rect1" /></defs><g
     inkscape:label="Layer 1"
     inkscape:groupmode="layer"
     id="layer1"><path
       id="path85"
       style="fill:#e6e6e6;stroke-width:0.507185"
       d="m 116.02148,28.859375 c -1.62448,0.189746 -2.4897,1.776067 -3.83827,2.508349 -5.90267,4.138381 -13.70976,5.265282 -20.707515,3.762305 -3.724494,-0.822626 -7.157003,-2.625675 -10.205533,-4.884717 -0.872482,-0.63577 -1.915125,-1.263932 -3.036035,-0.924109 -1.864645,0.483114 -3.036481,2.161912 -4.499255,3.287754 -6.22732,5.505378 -12.527305,10.939575 -18.639169,16.574637 -1.294822,1.561503 -0.454357,4.075427 1.265625,4.939453 5.347107,4.341436 8.920542,10.767746 9.697283,17.571592 0.424811,4.074811 0.07876,8.153447 -1.265471,12.045748 -0.807626,2.497935 -2.226241,4.716717 -3.602096,6.928251 -1.820253,2.944525 -3.369469,6.094819 -4.12459,9.491872 -2.10415,8.45393 -0.515192,17.6819 4.076623,25.06021 4.379396,7.24716 11.629466,12.8084 19.923471,14.71681 6.429218,1.79944 13.141413,1.98484 19.742332,2.66623 5.2596,0.76948 10.15928,3.50169 13.72432,7.41968 1.57769,1.09482 3.71965,0.20344 4.77711,-1.20218 4.21738,-4.19102 10.1358,-6.44379 16.04189,-6.57505 7.8909,-0.54536 15.98509,-1.4225 23.19906,-4.90044 11.89886,-6.05136 19.33695,-19.84314 17.75364,-33.11278 -0.55815,-5.362768 -2.64249,-10.485659 -5.63637,-14.942986 -1.74244,-2.853786 -3.22282,-5.944136 -3.74107,-9.314706 -1.06031,-5.468194 -0.46201,-11.387477 1.97458,-16.490353 1.92035,-4.009229 4.86573,-7.639148 8.47491,-10.311117 1.40376,-1.650253 0.53973,-4.293337 -1.22461,-5.304687 -6.943,-6.039878 -13.78563,-12.197285 -20.79492,-18.154297 -1.61279,-0.974003 -3.62636,-0.131988 -4.85366,1.081189 -3.56397,2.706612 -7.89953,4.369059 -12.3987,4.841097 -5.36671,0.616114 -11.01775,-0.433505 -15.81225,-3.039696 -1.84598,-0.924483 -3.40353,-2.295103 -5.10531,-3.435325 -0.35633,-0.187027 -0.7595,-0.333001 -1.16602,-0.302734 z" /><path
       style="fill:#28170b;stroke-width:0.507185"
       d="m 115.44414,146.46196 c -2.10893,-2.15562 -5.36243,-4.26323 -8.38284,-5.4304 -3.53452,-1.36583 -5.72072,-1.7655 -11.339275,-2.07296 -6.086264,-0.33305 -12.473411,-1.46085 -16.807713,-2.96778 -8.958491,-3.11466 -15.911678,-10.86376 -18.6308,-20.76342 -2.071581,-7.54213 -0.785271,-16.082677 3.395236,-22.542897 3.559714,-5.50091 4.781654,-8.60703 5.551017,-14.11046 0.212722,-1.52165 0.216554,-5.64374 0.0068,-7.3135 -0.511558,-4.07225 -1.997421,-8.38428 -4.046066,-11.74185 -1.779614,-2.91665 -4.408872,-5.98028 -6.52028,-7.59749 -0.545487,-0.41781 -0.991673,-0.79657 -0.991524,-0.8417 2.86e-4,-0.0865 1.052426,-1.03117 5.771162,-5.18136 1.594419,-1.40231 3.611369,-3.18372 4.482112,-3.95868 0.870742,-0.77496 1.866058,-1.65057 2.211811,-1.94579 1.101784,-0.94077 4.985591,-4.36365 6.80823,-6.00024 0.968798,-0.8699 1.823595,-1.58165 1.899548,-1.58165 0.07595,0 0.394217,0.21399 0.707254,0.47552 0.992431,0.82916 3.093722,2.16347 4.689747,2.97798 2.490695,1.27109 5.258364,2.18316 8.319941,2.7418 2.363103,0.43118 6.831924,0.43258 9.60309,0.003 5.14805,-0.79805 9.84739,-2.83143 13.29057,-5.75077 l 0.68478,-0.5806 1.12681,0.84959 c 5.02309,3.78728 11.25661,5.85893 17.62933,5.85893 6.81822,0 12.98861,-2.04564 17.78751,-5.89701 0.47112,-0.37811 0.92961,-0.67034 1.01885,-0.6494 0.0892,0.0209 1.14868,0.91932 2.3543,1.9964 2.03396,1.81711 9.62357,8.49676 12.85333,11.31228 0.7711,0.6722 2.25946,1.98288 3.30745,2.9126 1.048,0.92973 2.10792,1.85219 2.35539,2.0499 0.40692,0.3251 0.42718,0.37279 0.21191,0.49867 -0.55847,0.32657 -1.99785,1.59757 -3.16382,2.79372 -3.58138,3.67407 -6.38988,8.75301 -7.61281,13.76715 -1.04102,4.26828 -1.0155,9.68274 0.0669,14.19298 0.79645,3.31873 1.87376,5.7824 4.03434,9.22609 2.55439,4.07137 3.50539,6.1838 4.37252,9.712527 0.85842,3.49332 1.07919,6.99001 0.65777,10.41791 -0.83059,6.75605 -4.208,13.48615 -9.17559,18.28398 -3.57375,3.45163 -7.37633,5.61994 -12.2777,7.00102 -4.55642,1.28388 -9.92066,2.08858 -16.58588,2.48809 -2.79578,0.16758 -4.10295,0.326 -5.63609,0.68308 -3.13295,0.72969 -6.75546,2.34206 -9.2531,4.11854 -0.69775,0.49628 -1.85248,1.46091 -2.56607,2.14362 -0.71358,0.6827 -1.32212,1.24127 -1.35231,1.24127 -0.0302,0 -0.41532,-0.3684 -0.85585,-0.81868 z"
       id="path2" /><path
       style="fill:#e6e6e6;stroke-width:0.507185"
       d="m 162.05858,64.852863 c 0.73964,-2.31635 1.58606,-4.24956 2.74675,-6.27351 1.5049,-2.62417 2.71757,-4.23457 4.76162,-6.32332 1.25651,-1.28399 1.26181,-1.29224 0.96437,-1.50058 -0.1645,-0.11522 -0.91045,-0.74783 -1.65767,-1.40581 -0.74722,-0.65798 -2.92864,-2.57964 -4.84759,-4.27035 -1.91896,-1.69071 -4.21365,-3.70196 -5.09932,-4.46944 -0.88567,-0.76748 -2.41556,-2.12589 -3.39976,-3.01869 -0.98419,-0.89279 -1.83293,-1.63947 -1.88608,-1.65927 -0.0531,-0.0198 -0.69718,0.36561 -1.43118,0.85648 -3.10406,2.07588 -7.38989,3.72918 -11.39898,4.39729 -3.30596,0.55093 -7.2758,0.66283 -9.94563,0.28035 -4.86388,-0.69681 -9.72966,-2.45066 -13.31343,-4.79878 l -1.31482,-0.86148 -1.19942,0.79522 c -1.67486,1.11045 -4.92276,2.68276 -6.8404,3.31144 -3.40662,1.11683 -6.3172,1.62449 -9.874222,1.72223 -5.223262,0.14354 -9.408445,-0.6916 -14.198819,-2.83333 -1.640911,-0.73364 -3.873881,-1.99804 -4.584315,-2.59583 -0.19915,-0.16757 -0.436902,-0.30468 -0.528335,-0.30468 -0.09143,0 -0.777164,0.56246 -1.523844,1.24991 -0.74668,0.68745 -2.776687,2.48977 -4.511126,4.00516 -1.734439,1.51538 -3.697006,3.23481 -4.361259,3.82095 -3.552255,3.13451 -5.830563,5.12815 -6.299253,5.51217 l -0.52587,0.43087 1.132423,1.17944 c 3.545615,3.69283 6.175482,8.12621 7.66486,12.9213 0.149009,0.47973 0.298179,0.91754 0.331488,0.97289 0.03331,0.0554 20.464214,0.10065 45.402012,0.10065 h 45.34145 z"
       id="path12" /><path
       style="fill:#e6e6e6;stroke-width:0.507185"
       d="m 117.84012,142.33955 c 3.41611,-2.6483 7.30627,-4.42498 11.52302,-5.26268 1.94214,-0.38582 3.32246,-0.52293 8.09278,-0.80383 5.1145,-0.30117 11.90873,-1.58074 15.63344,-2.94427 5.31686,-1.94639 10.1588,-5.96338 13.32227,-11.05247 1.63073,-2.62337 3.1488,-6.36959 3.70688,-9.14767 1.0107,-5.03115 0.54114,-10.37193 -1.3221,-15.037437 -0.50708,-1.26972 -1.76316,-3.55834 -2.82844,-5.15355 -1.77272,-2.65454 -3.05734,-5.35746 -4.00965,-8.4366 -0.61157,-1.97742 -0.72259,-2.45833 -1.08938,-4.71927 -0.5101,-3.1443 -0.47925,-6.93059 0.0852,-10.46066 l 0.0868,-0.54313 h -44.70328 c -35.675435,0 -44.702428,0.0339 -44.699035,0.16774 0.0023,0.0923 0.09252,0.8018 0.200413,1.57676 0.298818,2.1464 0.389791,5.08186 0.214178,6.91092 -0.588246,6.12678 -2.13118,10.57518 -5.44838,15.70813 -3.94237,6.10032 -5.240614,11.695057 -4.279852,18.443887 1.406734,9.88155 8.400798,18.65315 17.428042,21.85739 4.054496,1.43915 10.431913,2.52517 17.042459,2.9022 1.992761,0.11365 4.166685,0.30005 4.830935,0.41422 3.80155,0.6534 7.02804,1.77742 10.00009,3.48375 1.46753,0.84254 4.07104,2.65176 4.41859,3.07053 0.0957,0.11536 0.19522,0.20975 0.22107,0.20975 0.0259,0 0.73409,-0.53267 1.57387,-1.18371 z"
       id="path3" /><path
       style="fill:#000000;stroke-width:0.507185"
       d="m 116.79026,43.124353 c 0.14762,-0.0819 0.36193,-0.21593 0.47625,-0.29786 0.11433,-0.0819 0.0657,-0.0131 -0.10813,0.15298 -0.17379,0.16607 -0.3881,0.3001 -0.47625,0.29785 -0.0881,-0.002 -0.0395,-0.0711 0.10813,-0.15297 z"
       id="path21" /><path
       id="path4"
       style="fill:#1a1a1a;stroke-width:0.507185"
       d="M 116.23167 132.9893 C 115.71896 132.9893 115.56873 133.05554 115.23638 133.42751 C 114.67997 134.05003 114.68028 134.92556 115.23689 135.48217 C 116.27139 136.51668 118.1233 135.45831 117.67189 134.09052 C 117.43255 133.36532 116.94065 132.9893 116.23167 132.9893 z M 116.78564 133.53965 C 116.89399 133.54115 116.98172 133.58771 117.11378 133.68021 C 117.78112 134.14763 117.70985 135.16758 116.98356 135.54315 C 116.13519 135.98186 115.38107 135.65038 115.38107 134.8388 C 115.38107 134.32638 115.70799 133.92517 116.33398 133.66936 C 116.54859 133.58166 116.67728 133.53815 116.78564 133.53965 z " /><path
       style="fill:#000000;stroke-width:0.507185"
       d="m 115.27199,42.946323 c -0.48607,-0.409 -0.62215,-0.8868 -0.42376,-1.48793 0.3415,-1.03473 1.66155,-1.36326 2.42203,-0.60277 0.21574,0.21574 0.38817,0.50257 0.38317,0.63741 -0.008,0.20492 -0.0332,0.19512 -0.156,-0.0597 -0.27853,-0.57795 -1.12257,-0.56172 -1.7653,0.0339 -0.30622,0.28379 -0.3595,0.43227 -0.32502,0.9059 0.0326,0.44745 0.11171,0.60195 0.37671,0.73537 0.22812,0.11484 0.26362,0.16953 0.11094,0.17087 -0.1235,10e-4 -0.40374,-0.14881 -0.62277,-0.3331 z"
       id="path20" /><path
       id="path18"
       style="fill:#000000;stroke-width:0.507185"
       d="M 139.26747 46.606458 L 139.26747 54.069051 L 139.26747 61.531645 L 142.49363 61.531645 C 146.15729 61.531645 147.17103 61.390413 148.75733 60.658313 C 150.42243 59.889843 151.55915 58.453931 152.0734 56.469421 C 152.34283 55.430261 152.34727 53.026062 152.08219 51.901742 C 151.62406 49.958662 150.40275 48.374633 148.75733 47.589343 C 147.26273 46.876033 146.41146 46.748237 142.65589 46.673637 L 139.26747 46.606458 z M 142.3541 49.285881 L 144.19895 49.345825 C 145.86733 49.400235 146.12525 49.442489 146.89129 49.787659 C 148.47328 50.500499 149.19761 51.862085 149.19761 54.122795 C 149.19761 55.871405 148.90524 56.732426 147.99665 57.660046 C 147.41659 58.252246 147.08886 58.469555 146.51405 58.640865 L 146.51405 58.640348 C 145.71808 58.877568 142.61974 59.082279 142.45435 58.908549 C 142.39901 58.850399 142.3541 56.661516 142.3541 54.044246 L 142.3541 49.285881 z " /><path
       style="fill:#000000;stroke-width:0.507185"
       d="m 125.57988,54.082303 v -7.44928 l 5.13286,0.0351 5.13287,0.0352 0.0401,1.00486 c 0.0221,0.55268 0.006,1.14046 -0.0356,1.30619 l -0.0756,0.30133 -3.58764,0.0357 -3.58764,0.0357 v 1.67741 1.6774 l 3.25416,0.0359 3.25418,0.0359 v 1.27244 1.27245 h -3.29162 -3.29161 l 0.0374,1.77805 0.0374,1.77805 3.79094,0.0356 3.79093,0.0356 v 1.27274 1.27274 h -5.3006 -5.30061 z"
       id="path17" /><path
       id="path15"
       style="fill:#000000;stroke-width:0.507185"
       d="M 110.28216 46.63643 L 110.28216 54.084037 L 110.28164 61.531645 L 111.73995 61.531645 L 113.19878 61.531645 L 113.28197 61.028316 C 113.32767 60.751536 113.3654 59.632696 113.36621 58.541646 L 113.36827 56.557788 L 114.86121 56.595512 L 116.35362 56.633752 L 117.44451 58.534412 C 118.04427 59.579822 118.67254 60.681808 118.84081 60.983358 L 119.14673 61.531645 L 120.88358 61.531645 L 122.62042 61.531645 L 122.24008 60.893958 C 122.03081 60.543388 121.28036 59.309716 120.57197 58.152006 L 119.28368 56.046708 L 119.74308 55.895296 C 120.34247 55.697476 121.49808 54.652281 121.82409 54.013241 C 122.22789 53.221741 122.39704 51.849188 122.22768 50.737988 C 122.02306 49.395458 121.5537 48.501519 120.73837 47.903019 C 119.3098 46.854339 118.06154 46.63643 113.49281 46.63643 L 110.28216 46.63643 z M 113.36827 49.319987 L 115.38572 49.319987 C 117.6588 49.319987 118.036 49.415915 118.68681 50.157145 C 119.67397 51.281445 119.27164 53.280264 117.94215 53.854594 C 117.60501 54.000234 116.84993 54.080195 115.41466 54.122795 L 113.36827 54.183773 L 113.36827 51.75188 L 113.36827 49.319987 z " /><path
       style="fill:#000000;stroke-width:0.507185"
       d="m 95.254901,60.961273 c 0.0014,-0.31368 -0.01369,-3.65004 -0.03355,-7.41414 l -0.0361,-6.84382 1.509667,-0.0379 1.509666,-0.0379 v 3.37039 c 0,1.92244 0.0515,3.35118 0.119873,3.32567 0.06593,-0.0246 0.919302,-0.98073 1.896383,-2.12472 0.97708,-1.14399 2.25721,-2.63856 2.84474,-3.32127 l 1.06823,-1.24128 h 1.74406 1.74405 l -0.36281,0.43613 c -0.47912,0.57593 -2.6994,3.09521 -3.92166,4.44978 -0.53509,0.59301 -0.9729,1.11672 -0.9729,1.16378 0,0.0471 0.52151,0.89416 1.1589,1.88242 0.6374,0.98827 1.62675,2.52149 2.19856,3.40717 1.1917,1.84581 2.14444,3.39696 2.14444,3.49137 0,0.0356 -0.80587,0.0647 -1.79081,0.0647 h -1.79082 l -1.92863,-3.22062 c -1.06074,-1.77134 -1.97141,-3.22063 -2.02371,-3.22063 -0.0523,0 -0.552467,0.51408 -1.11149,1.1424 l -1.016406,1.1424 v 2.07822 2.07823 h -1.476113 -1.476119 z"
       id="path14" /><path
       style="fill:#000000;stroke-width:0.507185"
       d="m 84.584039,61.612933 c -1.714546,-0.33095 -4.36126,-1.56045 -4.36126,-2.02598 0,-0.0947 0.276486,-0.69189 0.614413,-1.32712 l 0.614413,-1.15498 0.559773,0.38393 c 1.968289,1.34998 4.306338,1.92115 6.058305,1.48 0.789293,-0.19875 1.174171,-0.63058 1.192727,-1.33825 0.01264,-0.48195 -0.04925,-0.61316 -0.44502,-0.94357 -0.471501,-0.39363 -1.619293,-0.81756 -3.629484,-1.34054 -2.1546,-0.56055 -3.3754,-1.2805 -3.93021,-2.31781 -0.254719,-0.47624 -0.296857,-0.76456 -0.296857,-2.03114 0,-1.25895 0.04275,-1.55509 0.290563,-2.01289 0.609713,-1.12635 1.914282,-2.0291 3.37279,-2.33394 1.000295,-0.20906 3.02506,-0.18129 4.028432,0.0553 0.723214,0.1705 2.637406,0.99255 3.224424,1.38473 0.144423,0.0965 0.06625,0.36733 -0.388492,1.34608 -0.313111,0.67391 -0.58663,1.22529 -0.607818,1.22529 -0.02119,0 -0.571008,-0.2665 -1.221819,-0.59221 -1.489588,-0.74551 -2.000648,-0.88223 -3.301138,-0.88316 -1.656243,-10e-4 -2.377609,0.4555 -2.377609,1.50523 0,0.91567 0.558776,1.25338 3.188769,1.92721 4.156368,1.0649 5.417801,2.28293 5.228255,5.04834 -0.127104,1.85442 -1.118707,3.07507 -3.017554,3.71458 -1.145516,0.38579 -3.42476,0.49555 -4.795603,0.23095 z"
       id="path13" /><path
       style="fill:#d40000;stroke-width:0.507185"
       d="m 136.98625,102.86291 v -6.978017 h 0.93935 0.93934 v 1.34193 c 0,0.75463 0.0556,1.34193 0.12702,1.34193 0.0699,0 0.33778,-0.31703 0.59538,-0.70451 1.41602,-2.13003 3.22738,-2.74011 5.92014,-1.99396 0.87466,0.24236 0.88421,0.26392 0.51201,1.15565 -0.18475,0.44262 -0.37659,0.84808 -0.42631,0.90104 -0.0497,0.053 -0.48186,-0.0276 -0.9603,-0.17909 -2.02235,-0.64018 -3.88534,0.20521 -5.39027,2.445997 l -0.37767,0.56233 v 4.54236 4.54236 h -0.93934 -0.93935 z"
       id="path11" /><path
       style="fill:#d40000;stroke-width:0.507185"
       d="m 102.23037,100.38034 v -9.460567 h 0.93934 0.93935 v 5.35978 c 0,2.94788 0.0475,5.389137 0.10556,5.425017 0.0581,0.0359 1.57865,-1.25887 3.37909,-2.877217 l 3.27352,-2.94246 h 1.21222 c 1.03801,0 1.18398,0.0267 1.01572,0.1859 -0.10807,0.10223 -1.49481,1.34608 -3.08163,2.76411 -1.58683,1.418017 -2.90057,2.618577 -2.91943,2.667907 -0.0189,0.0494 1.49081,1.84379 3.35481,3.98767 1.86401,2.14389 3.47198,3.99978 3.57328,4.12421 0.1703,0.2092 0.0895,0.22618 -1.07354,0.22559 l -1.25772,-5.1e-4 -2.95223,-3.48142 c -1.62373,-1.91478 -3.02119,-3.48454 -3.10547,-3.48836 -0.0843,-0.004 -0.46169,0.27039 -0.8387,0.60936 l -0.68548,0.6163 v 2.8727 2.87271 h -0.93935 -0.93934 z"
       id="path10" /><path
       id="path7"
       style="fill:#d40000;stroke-width:0.507185"
       d="M 123.80381 90.54021 C 122.07951 90.610065 120.6313 91.399476 119.69709 92.79847 C 118.18026 95.06995 118.99697 97.911336 121.47579 98.984656 C 121.88524 99.161956 122.22151 99.353786 122.22251 99.410986 C 122.22377 99.468166 122.05909 99.574881 121.85613 99.648181 C 119.05337 100.65977 117.6577 103.27705 118.40052 106.12892 C 118.88349 107.98316 120.27789 109.31544 122.35946 109.91215 C 123.162 110.14222 125.0794 110.15044 125.91531 109.92714 C 127.45859 109.5149 128.93569 108.35138 129.54093 107.07202 C 130.15448 105.77508 130.21062 103.50703 129.65565 102.42269 C 129.00063 101.14287 128.02494 100.23401 126.81241 99.773755 C 126.47218 99.644605 126.17757 99.486672 126.15767 99.422872 C 126.13777 99.359042 126.45498 99.162189 126.86254 98.985689 C 127.7324 98.608949 128.67164 97.707647 129.10013 96.838017 C 129.33456 96.362177 129.4045 95.988966 129.4045 95.213826 C 129.4045 93.891646 128.97173 92.975769 127.86093 91.947359 C 126.9175 91.073909 125.9366 90.660389 124.55881 90.554679 C 124.30191 90.534971 124.05014 90.530231 123.80381 90.54021 z M 124.26632 92.286357 C 125.14665 92.32162 126.01796 92.699265 126.64137 93.409285 C 127.20327 94.049255 127.34733 94.445158 127.34933 95.360588 C 127.35266 96.706408 126.54315 97.752024 125.07144 98.303044 L 125.07144 98.30356 C 124.20995 98.62577 123.94871 98.626652 123.14235 98.311312 C 122.2449 97.960352 121.73784 97.560471 121.34867 96.896411 C 120.61819 95.649941 120.80415 94.250939 121.83804 93.217049 C 122.49671 92.558384 123.38599 92.251093 124.26632 92.286357 z M 124.08183 100.42229 C 124.45918 100.4151 124.85295 100.51338 125.37426 100.7153 C 126.49834 101.1507 127.45563 102.13021 127.78445 103.18182 C 128.08715 104.14991 128.00511 105.43315 127.58498 106.30101 C 127.22303 107.04872 126.27573 107.8829 125.48123 108.15361 C 124.83357 108.37431 123.73907 108.41477 123.16458 108.23939 C 122.478 108.02978 121.71721 107.56087 121.30887 107.09579 C 120.53169 106.21064 120.41332 105.86407 120.41332 104.47321 C 120.41332 103.32425 120.44982 103.13659 120.78229 102.571 C 121.22552 101.81701 121.88667 101.24986 122.88966 100.76284 C 123.34386 100.54232 123.70449 100.42949 124.08183 100.42229 z " /><path
       style="fill:#d40000;stroke-width:0.507185"
       d="m 87.881847,109.9634 c -0.326577,-0.0641 -0.890467,-0.21505 -1.253087,-0.33549 -0.568975,-0.18898 -0.648489,-0.25834 -0.580336,-0.50621 0.04343,-0.15798 0.116852,-0.51368 0.163149,-0.79045 0.0463,-0.27678 0.127391,-0.50322 0.180209,-0.50322 0.05282,0 0.452711,0.12657 0.888649,0.28128 1.122191,0.39823 3.606222,0.50754 4.648475,0.20455 1.970236,-0.57277 2.802095,-2.19918 1.758906,-3.43894 -0.474064,-0.56339 -0.840392,-0.73273 -3.483168,-1.6101 -1.263217,-0.41937 -2.559554,-0.93899 -2.880749,-1.15471 -1.362758,-0.91524 -1.846409,-2.692037 -1.130877,-4.154527 0.646618,-1.32164 2.017975,-2.07809 4.211283,-2.32296 1.880436,-0.20995 4.91843,0.19781 4.791625,0.64312 -0.39553,1.38902 -0.387819,1.37417 -0.672133,1.29482 -2.6,-0.7256 -5.288183,-0.47779 -6.302579,0.58101 -0.736268,0.7685 -0.569589,1.972457 0.351801,2.541127 0.241659,0.14915 1.375373,0.55415 2.519365,0.89999 2.316461,0.7003 3.207527,1.09645 3.869797,1.72045 0.778845,0.73384 1.025736,1.35396 1.022852,2.56909 -0.0022,0.92412 -0.05561,1.17029 -0.383794,1.7686 -0.610544,1.11309 -1.746124,1.88224 -3.330445,2.25577 -0.920677,0.21706 -3.408011,0.24925 -4.388943,0.0568 z"
       id="path6" /><text
       xml:space="preserve"
       transform="matrix(0.26458333,0,0,0.26458333,-2.8193306,-31.012637)"
       id="text1"
       style="text-align:start;writing-mode:lr-tb;direction:ltr;text-anchor:start;white-space:pre;shape-inside:url(#rect1);fill:#d40000"><tspan
         sodipodi:role="line"
         id="tspan1">sk8-pad</tspan></text></g></svg>
